<mxfile host="app.diagrams.net" modified="2023-12-29T04:54:45.627Z" agent="Mozilla/5.0 (Windows NT 10.0; Win64; x64) AppleWebKit/537.36 (KHTML, like Gecko) Chrome/92.0.4515.159 Safari/537.36" etag="07WKrj619jE6p9lBU6_P" version="22.1.15" type="github">
  <diagram name="第 1 页" id="RaAsG3w7D9-E8X_579AS">
    <mxGraphModel dx="1050" dy="558" grid="0" gridSize="10" guides="1" tooltips="1" connect="1" arrows="1" fold="1" page="1" pageScale="1" pageWidth="827" pageHeight="1169" math="0" shadow="0">
      <root>
        <mxCell id="0" />
        <mxCell id="1" parent="0" />
        <mxCell id="BlFdUHjr2oXq62G2lYE0-15" style="edgeStyle=orthogonalEdgeStyle;rounded=0;orthogonalLoop=1;jettySize=auto;html=1;" parent="1" source="BlFdUHjr2oXq62G2lYE0-3" target="BlFdUHjr2oXq62G2lYE0-4" edge="1">
          <mxGeometry relative="1" as="geometry" />
        </mxCell>
        <mxCell id="BlFdUHjr2oXq62G2lYE0-3" value="入参&lt;br&gt;count：目标容量&lt;br&gt;B：B当前的值" style="rounded=0;whiteSpace=wrap;html=1;" parent="1" vertex="1">
          <mxGeometry x="314.75" y="129" width="120" height="60" as="geometry" />
        </mxCell>
        <mxCell id="BlFdUHjr2oXq62G2lYE0-11" style="edgeStyle=orthogonalEdgeStyle;rounded=0;orthogonalLoop=1;jettySize=auto;html=1;" parent="1" source="BlFdUHjr2oXq62G2lYE0-4" target="BlFdUHjr2oXq62G2lYE0-9" edge="1">
          <mxGeometry relative="1" as="geometry" />
        </mxCell>
        <mxCell id="BlFdUHjr2oXq62G2lYE0-12" value="否&lt;br&gt;" style="edgeLabel;html=1;align=center;verticalAlign=middle;resizable=0;points=[];" parent="BlFdUHjr2oXq62G2lYE0-11" vertex="1" connectable="0">
          <mxGeometry x="-0.0164" y="4" relative="1" as="geometry">
            <mxPoint x="41" y="-83" as="offset" />
          </mxGeometry>
        </mxCell>
        <mxCell id="BlFdUHjr2oXq62G2lYE0-16" style="edgeStyle=orthogonalEdgeStyle;rounded=0;orthogonalLoop=1;jettySize=auto;html=1;" parent="1" source="BlFdUHjr2oXq62G2lYE0-4" target="BlFdUHjr2oXq62G2lYE0-6" edge="1">
          <mxGeometry relative="1" as="geometry" />
        </mxCell>
        <mxCell id="BlFdUHjr2oXq62G2lYE0-17" value="是" style="edgeLabel;html=1;align=center;verticalAlign=middle;resizable=0;points=[];" parent="BlFdUHjr2oXq62G2lYE0-16" vertex="1" connectable="0">
          <mxGeometry x="-0.4321" y="-2" relative="1" as="geometry">
            <mxPoint as="offset" />
          </mxGeometry>
        </mxCell>
        <mxCell id="BlFdUHjr2oXq62G2lYE0-4" value="判断count是否大于8" style="rhombus;whiteSpace=wrap;html=1;" parent="1" vertex="1">
          <mxGeometry x="318" y="233" width="113.5" height="73" as="geometry" />
        </mxCell>
        <mxCell id="BlFdUHjr2oXq62G2lYE0-13" style="edgeStyle=orthogonalEdgeStyle;rounded=0;orthogonalLoop=1;jettySize=auto;html=1;" parent="1" source="BlFdUHjr2oXq62G2lYE0-6" target="BlFdUHjr2oXq62G2lYE0-9" edge="1">
          <mxGeometry relative="1" as="geometry" />
        </mxCell>
        <mxCell id="BlFdUHjr2oXq62G2lYE0-14" value="否" style="edgeLabel;html=1;align=center;verticalAlign=middle;resizable=0;points=[];" parent="BlFdUHjr2oXq62G2lYE0-13" vertex="1" connectable="0">
          <mxGeometry x="-0.5949" y="2" relative="1" as="geometry">
            <mxPoint as="offset" />
          </mxGeometry>
        </mxCell>
        <mxCell id="BlFdUHjr2oXq62G2lYE0-18" style="edgeStyle=orthogonalEdgeStyle;rounded=0;orthogonalLoop=1;jettySize=auto;html=1;" parent="1" source="BlFdUHjr2oXq62G2lYE0-6" target="BlFdUHjr2oXq62G2lYE0-10" edge="1">
          <mxGeometry relative="1" as="geometry" />
        </mxCell>
        <mxCell id="BlFdUHjr2oXq62G2lYE0-19" value="是" style="edgeLabel;html=1;align=center;verticalAlign=middle;resizable=0;points=[];" parent="BlFdUHjr2oXq62G2lYE0-18" vertex="1" connectable="0">
          <mxGeometry x="-0.3973" y="-4" relative="1" as="geometry">
            <mxPoint as="offset" />
          </mxGeometry>
        </mxCell>
        <mxCell id="BlFdUHjr2oXq62G2lYE0-6" value="判断负载因子是否大于6.5" style="rhombus;whiteSpace=wrap;html=1;" parent="1" vertex="1">
          <mxGeometry x="318.5" y="358" width="113" height="74" as="geometry" />
        </mxCell>
        <mxCell id="BlFdUHjr2oXq62G2lYE0-25" value="" style="edgeStyle=orthogonalEdgeStyle;rounded=0;orthogonalLoop=1;jettySize=auto;html=1;" parent="1" source="BlFdUHjr2oXq62G2lYE0-7" target="BlFdUHjr2oXq62G2lYE0-3" edge="1">
          <mxGeometry relative="1" as="geometry" />
        </mxCell>
        <mxCell id="BlFdUHjr2oXq62G2lYE0-7" value="开始" style="rounded=1;whiteSpace=wrap;html=1;" parent="1" vertex="1">
          <mxGeometry x="307" y="36" width="136" height="44" as="geometry" />
        </mxCell>
        <mxCell id="BlFdUHjr2oXq62G2lYE0-22" style="edgeStyle=orthogonalEdgeStyle;rounded=0;orthogonalLoop=1;jettySize=auto;html=1;" parent="1" source="BlFdUHjr2oXq62G2lYE0-9" target="BlFdUHjr2oXq62G2lYE0-21" edge="1">
          <mxGeometry relative="1" as="geometry">
            <Array as="points">
              <mxPoint x="239" y="637" />
            </Array>
          </mxGeometry>
        </mxCell>
        <mxCell id="BlFdUHjr2oXq62G2lYE0-9" value="结果为 false" style="rounded=0;whiteSpace=wrap;html=1;" parent="1" vertex="1">
          <mxGeometry x="170" y="483" width="120" height="60" as="geometry" />
        </mxCell>
        <mxCell id="BlFdUHjr2oXq62G2lYE0-24" style="edgeStyle=orthogonalEdgeStyle;rounded=0;orthogonalLoop=1;jettySize=auto;html=1;" parent="1" source="BlFdUHjr2oXq62G2lYE0-10" target="BlFdUHjr2oXq62G2lYE0-21" edge="1">
          <mxGeometry relative="1" as="geometry" />
        </mxCell>
        <mxCell id="BlFdUHjr2oXq62G2lYE0-10" value="结果为 true" style="rounded=0;whiteSpace=wrap;html=1;" parent="1" vertex="1">
          <mxGeometry x="314.75" y="483" width="120" height="60" as="geometry" />
        </mxCell>
        <mxCell id="BlFdUHjr2oXq62G2lYE0-21" value="返回结果，结束" style="rounded=1;whiteSpace=wrap;html=1;" parent="1" vertex="1">
          <mxGeometry x="314.75" y="607" width="120" height="60" as="geometry" />
        </mxCell>
        <mxCell id="Rqm1tfP2heVwqu3wS8I2-1" value="迁移" style="text;html=1;strokeColor=none;fillColor=none;align=center;verticalAlign=middle;whiteSpace=wrap;rounded=0;" vertex="1" parent="1">
          <mxGeometry x="38" y="765" width="60" height="30" as="geometry" />
        </mxCell>
        <mxCell id="Rqm1tfP2heVwqu3wS8I2-2" value="开始" style="rounded=1;whiteSpace=wrap;html=1;" vertex="1" parent="1">
          <mxGeometry x="301" y="727" width="82" height="38" as="geometry" />
        </mxCell>
        <mxCell id="Rqm1tfP2heVwqu3wS8I2-3" value="获取待迁移的桶地址" style="rounded=0;whiteSpace=wrap;html=1;" vertex="1" parent="1">
          <mxGeometry x="280" y="793" width="130" height="35" as="geometry" />
        </mxCell>
        <mxCell id="Rqm1tfP2heVwqu3wS8I2-4" value="判断该桶是否被迁移过" style="rhombus;whiteSpace=wrap;html=1;" vertex="1" parent="1">
          <mxGeometry x="274" y="851" width="142" height="42" as="geometry" />
        </mxCell>
        <mxCell id="Rqm1tfP2heVwqu3wS8I2-5" value="获取x桶地址" style="rounded=0;whiteSpace=wrap;html=1;" vertex="1" parent="1">
          <mxGeometry x="276" y="925" width="136" height="21" as="geometry" />
        </mxCell>
        <mxCell id="Rqm1tfP2heVwqu3wS8I2-6" value="判断是否是等量扩容" style="rhombus;whiteSpace=wrap;html=1;" vertex="1" parent="1">
          <mxGeometry x="262" y="974" width="152" height="40" as="geometry" />
        </mxCell>
        <mxCell id="Rqm1tfP2heVwqu3wS8I2-7" value="获取y桶地址" style="rounded=0;whiteSpace=wrap;html=1;" vertex="1" parent="1">
          <mxGeometry x="276" y="1066" width="162" height="21" as="geometry" />
        </mxCell>
        <mxCell id="Rqm1tfP2heVwqu3wS8I2-8" value="遍历旧桶数据，根据条件将旧桶数据迁移到" style="rounded=0;whiteSpace=wrap;html=1;" vertex="1" parent="1">
          <mxGeometry x="291" y="1115" width="119" height="37" as="geometry" />
        </mxCell>
      </root>
    </mxGraphModel>
  </diagram>
</mxfile>
